{
  "source": "C:\\Users\\Peter\\Desktop\\stuff\\MIUN\\quantitative_research\\video_compression\\videos\\HEVC_CLASS_B\\BasketballDrive_1920x1080_50.y4m",
  "output": "C:\\Users\\Peter\\Desktop\\stuff\\MIUN\\quantitative_research\\video_compression\\compressed_videos\\HEVC_CLASS_B\\h264\\1\\BasketballDrive_1920x1080_50_h264.mp4",
  "codec": "h264",
  "ok": "Input #0, yuv4mpegpipe, from 'C:\\Users\\Peter\\Desktop\\stuff\\MIUN\\quantitative_research\\video_compression\\videos\\HEVC_CLASS_B\\BasketballDrive_1920x1080_50.y4m':\n  Duration: 00:00:10.00, start: 0.000000, bitrate: 1244162 kb/s\n  Stream #0:0: Video: rawvideo (I420 / 0x30323449), yuv420p(progressive), 1920x1080, 50 fps, 50 tbr, 50 tbn\n[out#0/mp4 @ 0000017de098a540] Codec AVOption b:a (set bitrate (in bits/s)) has not been used for any stream. The most likely reason is either wrong type (e.g. a video option with no video streams) or that it is a private option of some decoder which was not actually used for any stream.\nStream mapping:\n  Stream #0:0 -> #0:0 (rawvideo (native) -> h264 (libx264))\nPress [q] to stop, [?] for help\n[libx264 @ 0000017de098c940] using cpu capabilities: MMX2 SSE2Fast SSSE3 SSE4.2 AVX FMA3 BMI2 AVX2\n[libx264 @ 0000017de098c940] profile High, level 5.0, 4:2:0, 8-bit\n[libx264 @ 0000017de098c940] 264 - core 165 r3222 b35605a - H.264/MPEG-4 AVC codec - Copyleft 2003-2025 - http://www.videolan.org/x264.html - options: cabac=1 ref=5 deblock=1:0:0 analyse=0x3:0x113 me=hex subme=8 psy=1 psy_rd=1.00:0.00 mixed_ref=1 me_range=16 chroma_me=1 trellis=2 8x8dct=1 cqm=0 deadzone=21,11 fast_pskip=1 chroma_qp_offset=-2 threads=18 lookahead_threads=3 sliced_threads=0 nr=0 decimate=1 interlaced=0 bluray_compat=0 constrained_intra=0 bframes=3 b_pyramid=2 b_adapt=1 b_bias=0 direct=3 weightb=1 open_gop=0 weightp=2 keyint=250 keyint_min=25 scenecut=40 intra_refresh=0 rc_lookahead=50 rc=cbr mbtree=1 bitrate=1000 ratetol=1.0 qcomp=0.60 qpmin=0 qpmax=69 qpstep=4 vbv_maxrate=1000 vbv_bufsize=1000 nal_hrd=none filler=0 ip_ratio=1.40 aq=1:1.00\nOutput #0, mp4, to 'C:\\Users\\Peter\\Desktop\\stuff\\MIUN\\quantitative_research\\video_compression\\compressed_videos\\HEVC_CLASS_B\\h264\\1\\BasketballDrive_1920x1080_50_h264.mp4':\n  Metadata:\n    encoder         : Lavf62.3.100\n  Stream #0:0: Video: h264 (avc1 / 0x31637661), yuv420p(tv, progressive), 1920x1080, q=2-31, 1000 kb/s, 50 fps, 12800 tbn\n    Metadata:\n      encoder         : Lavc62.11.100 libx264\n    Side data:\n      cpb: bitrate max/min/avg: 1000000/0/1000000 buffer size: 1000000 vbv_delay: N/A\nframe=    0 fps=0.0 q=0.0 size=       0KiB time=N/A bitrate=N/A speed=N/A elapsed=0:00:00.53    \nframe=    0 fps=0.0 q=0.0 size=       0KiB time=N/A bitrate=N/A speed=N/A elapsed=0:00:01.45    \nframe=    0 fps=0.0 q=0.0 size=       0KiB time=N/A bitrate=N/A speed=N/A elapsed=0:00:02.03    \nframe=   14 fps=4.9 q=52.0 size=       0KiB time=00:00:00.20 bitrate=   1.9kbits/s speed=0.0702x elapsed=0:00:02.84    \nframe=   28 fps=7.7 q=51.0 size=       0KiB time=00:00:00.32 bitrate=   1.2kbits/s speed=0.0882x elapsed=0:00:03.62    \nframe=   48 fps= 11 q=51.0 size=       0KiB time=00:00:00.76 bitrate=   0.5kbits/s speed=0.172x elapsed=0:00:04.41    \nframe=   64 fps= 12 q=52.0 size=       0KiB time=00:00:01.16 bitrate=   0.3kbits/s speed=0.221x elapsed=0:00:05.24    \nframe=   69 fps= 12 q=52.0 size=       0KiB time=00:00:01.34 bitrate=   0.3kbits/s speed=0.229x elapsed=0:00:05.85    \nframe=   84 fps= 13 q=51.0 size=       0KiB time=00:00:01.64 bitrate=   0.2kbits/s speed=0.253x elapsed=0:00:06.47    \nframe=  100 fps= 14 q=52.0 size=       0KiB time=00:00:01.96 bitrate=   0.2kbits/s speed=0.28x elapsed=0:00:06.98    \nframe=  114 fps= 15 q=52.0 size=     256KiB time=00:00:02.24 bitrate= 936.4kbits/s speed=0.298x elapsed=0:00:07.51    \nframe=  122 fps= 15 q=52.0 size=     256KiB time=00:00:02.40 bitrate= 874.0kbits/s speed=0.299x elapsed=0:00:08.02    \nframe=  136 fps= 16 q=52.0 size=     256KiB time=00:00:02.68 bitrate= 782.7kbits/s speed=0.313x elapsed=0:00:08.54    \nframe=  144 fps= 16 q=52.0 size=     256KiB time=00:00:02.84 bitrate= 738.6kbits/s speed=0.313x elapsed=0:00:09.06    \nframe=  156 fps= 16 q=52.0 size=     256KiB time=00:00:03.08 bitrate= 681.0kbits/s speed=0.322x elapsed=0:00:09.57    \nframe=  168 fps= 17 q=50.0 size=     256KiB time=00:00:03.32 bitrate= 631.8kbits/s speed=0.329x elapsed=0:00:10.09    \nframe=  180 fps= 17 q=50.0 size=     256KiB time=00:00:03.56 bitrate= 589.2kbits/s speed=0.336x elapsed=0:00:10.60    \nframe=  194 fps= 17 q=50.0 size=     256KiB time=00:00:03.84 bitrate= 546.2kbits/s speed=0.345x elapsed=0:00:11.11    \nframe=  194 fps= 17 q=50.0 size=     256KiB time=00:00:03.84 bitrate= 546.2kbits/s speed=0.33x elapsed=0:00:11.63    \nframe=  212 fps= 17 q=49.0 size=     256KiB time=00:00:04.20 bitrate= 499.4kbits/s speed=0.346x elapsed=0:00:12.15    \nframe=  214 fps= 17 q=49.0 size=     256KiB time=00:00:04.24 bitrate= 494.7kbits/s speed=0.335x elapsed=0:00:12.67    \nframe=  228 fps= 17 q=50.0 size=     512KiB time=00:00:04.52 bitrate= 928.0kbits/s speed=0.343x elapsed=0:00:13.17    \nframe=  233 fps= 17 q=50.0 size=     512KiB time=00:00:04.62 bitrate= 907.9kbits/s speed=0.337x elapsed=0:00:13.70    \nframe=  238 fps= 17 q=50.0 size=     512KiB time=00:00:04.72 bitrate= 888.7kbits/s speed=0.332x elapsed=0:00:14.21    \nframe=  250 fps= 17 q=50.0 size=     512KiB time=00:00:04.96 bitrate= 845.7kbits/s speed=0.337x elapsed=0:00:14.72    \nframe=  264 fps= 17 q=49.0 size=     512KiB time=00:00:05.24 bitrate= 800.5kbits/s speed=0.344x elapsed=0:00:15.24    \nframe=  278 fps= 18 q=51.0 size=     512KiB time=00:00:05.52 bitrate= 759.9kbits/s speed=0.35x elapsed=0:00:15.76    \nframe=  290 fps= 18 q=51.0 size=     512KiB time=00:00:05.76 bitrate= 728.2kbits/s speed=0.354x elapsed=0:00:16.27    \nframe=  302 fps= 18 q=50.0 size=     512KiB time=00:00:06.00 bitrate= 699.1kbits/s speed=0.357x elapsed=0:00:16.79    \nframe=  312 fps= 18 q=48.0 size=     512KiB time=00:00:06.20 bitrate= 676.6kbits/s speed=0.358x elapsed=0:00:17.31    \nframe=  322 fps= 18 q=49.0 size=     512KiB time=00:00:06.40 bitrate= 655.4kbits/s speed=0.359x elapsed=0:00:17.82    \nframe=  332 fps= 18 q=49.0 size=     768KiB time=00:00:06.60 bitrate= 953.3kbits/s speed=0.36x elapsed=0:00:18.33    \nframe=  344 fps= 18 q=50.0 size=     768KiB time=00:00:06.84 bitrate= 919.9kbits/s speed=0.363x elapsed=0:00:18.85    \nframe=  344 fps= 18 q=50.0 size=     768KiB time=00:00:06.84 bitrate= 919.9kbits/s speed=0.353x elapsed=0:00:19.36    \nframe=  354 fps= 18 q=51.0 size=     768KiB time=00:00:07.04 bitrate= 893.7kbits/s speed=0.354x elapsed=0:00:19.88    \nframe=  366 fps= 18 q=51.0 size=     768KiB time=00:00:07.28 bitrate= 864.3kbits/s speed=0.357x elapsed=0:00:20.40    \nframe=  382 fps= 18 q=48.0 size=     768KiB time=00:00:07.60 bitrate= 827.9kbits/s speed=0.363x elapsed=0:00:20.92    \nframe=  394 fps= 18 q=49.0 size=     768KiB time=00:00:07.84 bitrate= 802.5kbits/s speed=0.366x elapsed=0:00:21.43    \nframe=  402 fps= 18 q=50.0 size=     768KiB time=00:00:08.00 bitrate= 786.5kbits/s speed=0.365x elapsed=0:00:21.94    \nframe=  418 fps= 19 q=50.0 size=     768KiB time=00:00:08.32 bitrate= 756.2kbits/s speed=0.37x elapsed=0:00:22.46    \nframe=  420 fps= 18 q=50.0 size=     768KiB time=00:00:08.36 bitrate= 752.6kbits/s speed=0.364x elapsed=0:00:22.97    \nframe=  426 fps= 18 q=50.0 size=     768KiB time=00:00:08.48 bitrate= 742.0kbits/s speed=0.361x elapsed=0:00:23.50    \nframe=  440 fps= 18 q=50.0 size=    1024KiB time=00:00:08.76 bitrate= 957.6kbits/s speed=0.365x elapsed=0:00:24.01    \nframe=  448 fps= 18 q=51.0 size=    1024KiB time=00:00:08.94 bitrate= 938.4kbits/s speed=0.364x elapsed=0:00:24.53    \nframe=  459 fps= 18 q=51.0 size=    1024KiB time=00:00:09.14 bitrate= 917.8kbits/s speed=0.365x elapsed=0:00:25.04    \nframe=  476 fps= 19 q=49.0 size=    1024KiB time=00:00:09.48 bitrate= 884.9kbits/s speed=0.371x elapsed=0:00:25.55    \nframe=  496 fps= 19 q=-1.0 size=    1024KiB time=00:00:09.88 bitrate= 849.1kbits/s speed=0.379x elapsed=0:00:26.06    \n[mp4 @ 0000017de098b680] Starting second pass: moving the moov atom to the beginning of the file\n[out#0/mp4 @ 0000017de098a540] video:1187KiB audio:0KiB subtitle:0KiB other streams:0KiB global headers:0KiB muxing overhead: 0.565521%\nframe=  500 fps= 19 q=-1.0 Lsize=    1193KiB time=00:00:09.96 bitrate= 981.4kbits/s speed=0.378x elapsed=0:00:26.37    \n[libx264 @ 0000017de098c940] frame I:2     Avg QP:44.83  size: 12137\n[libx264 @ 0000017de098c940] frame P:126   Avg QP:48.66  size:  4252\n[libx264 @ 0000017de098c940] frame B:372   Avg QP:49.96  size:  1759\n[libx264 @ 0000017de098c940] consecutive B-frames:  0.8%  0.0%  0.0% 99.2%\n[libx264 @ 0000017de098c940] mb I  I16..4: 40.3% 59.3%  0.4%\n[libx264 @ 0000017de098c940] mb P  I16..4:  6.4%  4.3%  0.0%  P16..4: 15.9%  0.5%  0.6%  0.0%  0.0%    skip:72.3%\n[libx264 @ 0000017de098c940] mb B  I16..4:  0.1%  0.0%  0.0%  B16..8: 17.6%  0.2%  0.0%  direct: 0.5%  skip:81.5%  L0:31.0% L1:68.9% BI: 0.1%\n[libx264 @ 0000017de098c940] 8x8 transform intra:42.1% inter:96.8%\n[libx264 @ 0000017de098c940] direct mvs  spatial:97.3% temporal:2.7%\n[libx264 @ 0000017de098c940] coded y,uvDC,uvAC intra: 3.7% 28.3% 3.3% inter: 0.2% 2.4% 0.0%\n[libx264 @ 0000017de098c940] i16 v,h,dc,p: 49% 28%  5% 18%\n[libx264 @ 0000017de098c940] i8 v,h,dc,ddl,ddr,vr,hd,vl,hu: 10%  7% 63%  3%  4%  4%  3%  3%  2%\n[libx264 @ 0000017de098c940] i4 v,h,dc,ddl,ddr,vr,hd,vl,hu: 14% 18% 23%  6% 15% 11%  6%  4%  4%\n[libx264 @ 0000017de098c940] i8c dc,h,v,p: 77% 10% 10%  3%\n[libx264 @ 0000017de098c940] Weighted P-Frames: Y:0.0% UV:0.0%\n[libx264 @ 0000017de098c940] ref P L0: 61.6%  1.9% 21.7%  6.4%  8.4%\n[libx264 @ 0000017de098c940] ref B L0: 85.2% 10.5%  3.2%  1.0%\n[libx264 @ 0000017de098c940] ref B L1: 96.0%  4.0%\n[libx264 @ 0000017de098c940] kb/s:971.38\n",
  "seconds": 27.190969705581665,
  "probe_out": {}
}